<?xml version="1.0" encoding="UTF-8"?>
<svg width="240px" height="240px" viewBox="0 0 24 24" version="1.1" xmlns="http://www.w3.org/2000/svg" xmlns:xlink="http://www.w3.org/1999/xlink">
    <title>logo</title>
    <g id="Page-1" stroke="none" stroke-width="1" fill="none" fill-rule="evenodd">
        <g id="logo" fill="#293035">
            <g id="Group-95">
                <path d="M0,11.8563429 L0,12.2372952 C0,12.3424381 0.0853333333,12.4277714 0.19047619,12.4277714 L2.85714286,12.4277714 C2.96228571,12.4277714 3.04761905,12.3424381 3.04761905,12.2372952 L3.04761905,11.8563429 C3.04761905,11.7512 2.96228571,11.6658667 2.85714286,11.6658667 L0.19047619,11.6658667 C0.0853333333,11.6658667 0,11.7512 0,11.8563429" id="Fill-1"></path>
                <path d="M1.67952381,5.87558095 L1.48904762,6.20548571 C1.43647619,6.29653333 1.46771429,6.41310476 1.5587619,6.46567619 L3.86809524,7.79900952 C3.95933333,7.85158095 4.07571429,7.82034286 4.12828571,7.72929524 L4.3187619,7.39939048 C4.37152381,7.30834286 4.34028571,7.19177143 4.24904762,7.1392 L1.93971429,5.80586667 C1.84866667,5.75329524 1.73209524,5.78453333 1.67952381,5.87558095" id="Fill-3"></path>
                <path d="M6.12441905,1.53586667 L5.79451429,1.72634286 C5.70346667,1.77891429 5.67222857,1.89548571 5.7248,1.98653333 L7.05813333,4.29586667 C7.11070476,4.38710476 7.22727619,4.41834286 7.31832381,4.36558095 L7.64822857,4.17510476 C7.73927619,4.12253333 7.77051429,4.00615238 7.71794286,3.91491429 L6.38460952,1.60558095 C6.3320381,1.51453333 6.21546667,1.48329524 6.12441905,1.53586667" id="Fill-5"></path>
                <path d="M12.1436571,0 L11.7627048,0 C11.6575619,0 11.5722286,0.0853333333 11.5722286,0.19047619 L11.5722286,2.85714286 C11.5722286,2.96228571 11.6575619,3.04761905 11.7627048,3.04761905 L12.1436571,3.04761905 C12.2488,3.04761905 12.3341333,2.96228571 12.3341333,2.85714286 L12.3341333,0.19047619 C12.3341333,0.0853333333 12.2488,0 12.1436571,0" id="Fill-7"></path>
                <path d="M18.124419,1.67952381 L17.7945143,1.48904762 C17.7034667,1.43647619 17.5868952,1.46771429 17.5343238,1.5587619 L16.2009905,3.86809524 C16.148419,3.95933333 16.1796571,4.07571429 16.2707048,4.12828571 L16.6006095,4.3187619 C16.6916571,4.37152381 16.8082286,4.34028571 16.8608,4.24904762 L18.1941333,1.93971429 C18.2467048,1.84866667 18.2154667,1.73209524 18.124419,1.67952381" id="Fill-9"></path>
                <path d="M22.4641333,6.12441905 L22.2736571,5.79451429 C22.2210857,5.70346667 22.1045143,5.67222857 22.0134667,5.7248 L19.7041333,7.05813333 C19.6128952,7.11070476 19.5816571,7.22727619 19.634419,7.31832381 L19.8248952,7.64822857 C19.8774667,7.73927619 19.9938476,7.77051429 20.0850857,7.71794286 L22.394419,6.38460952 C22.4854667,6.3320381 22.5167048,6.21546667 22.4641333,6.12441905" id="Fill-11"></path>
                <path d="M24,12.1436571 L24,11.7627048 C24,11.6575619 23.9146667,11.5722286 23.8095238,11.5722286 L21.1428571,11.5722286 C21.0377143,11.5722286 20.952381,11.6575619 20.952381,11.7627048 L20.952381,12.1436571 C20.952381,12.2488 21.0377143,12.3341333 21.1428571,12.3341333 L23.8095238,12.3341333 C23.9146667,12.3341333 24,12.2488 24,12.1436571" id="Fill-13"></path>
                <path d="M22.3204762,18.124419 L22.5109524,17.7945143 C22.5635238,17.7034667 22.5322857,17.5868952 22.4412381,17.5343238 L20.1319048,16.2009905 C20.0406667,16.148419 19.9242857,16.1796571 19.8717143,16.2707048 L19.6812381,16.6006095 C19.6284762,16.6916571 19.6597143,16.8082286 19.7509524,16.8608 L22.0602857,18.1941333 C22.1513333,18.2467048 22.2679048,18.2154667 22.3204762,18.124419" id="Fill-15"></path>
                <path d="M17.875581,22.4641333 L18.2054857,22.2736571 C18.2965333,22.2210857 18.3277714,22.1045143 18.2752,22.0134667 L16.9418667,19.7041333 C16.8892952,19.6128952 16.7727238,19.5816571 16.6816762,19.634419 L16.3517714,19.8248952 C16.2607238,19.8774667 16.2294857,19.9938476 16.2820571,20.0850857 L17.6153905,22.394419 C17.6679619,22.4854667 17.7845333,22.5167048 17.875581,22.4641333" id="Fill-17"></path>
                <path d="M11.8563238,24 L12.2372762,24 C12.342419,24 12.4277524,23.9146667 12.4277524,23.8095238 L12.4277524,21.1428571 C12.4277524,21.0377143 12.342419,20.952381 12.2372762,20.952381 L11.8563238,20.952381 C11.751181,20.952381 11.6658476,21.0377143 11.6658476,21.1428571 L11.6658476,23.8095238 C11.6658476,23.9146667 11.751181,24 11.8563238,24" id="Fill-19"></path>
                <path d="M5.87558095,22.3204762 L6.20548571,22.5109524 C6.29653333,22.5635238 6.41310476,22.5322857 6.46567619,22.4412381 L7.79900952,20.1319048 C7.85158095,20.0406667 7.82034286,19.9242857 7.72929524,19.8717143 L7.39939048,19.6812381 C7.30834286,19.6284762 7.19177143,19.6597143 7.1392,19.7509524 L5.80586667,22.0602857 C5.75329524,22.1513333 5.78453333,22.2679048 5.87558095,22.3204762" id="Fill-21"></path>
                <path d="M1.53586667,17.875581 L1.72634286,18.2054857 C1.77891429,18.2965333 1.89548571,18.3277714 1.98653333,18.2752 L4.29586667,16.9418667 C4.38710476,16.8892952 4.41834286,16.7727238 4.36558095,16.6816762 L4.17510476,16.3517714 C4.12253333,16.2607238 4.00615238,16.2294857 3.91491429,16.2820571 L1.60558095,17.6153905 C1.51453333,17.6679619 1.48329524,17.7845333 1.53586667,17.875581" id="Fill-23"></path>
                <path d="M0,11.8563429 L0,12.2372952 C0,12.3424381 0.0853333333,12.4277714 0.19047619,12.4277714 L2.85714286,12.4277714 C2.96228571,12.4277714 3.04761905,12.3424381 3.04761905,12.2372952 L3.04761905,11.8563429 C3.04761905,11.7512 2.96228571,11.6658667 2.85714286,11.6658667 L0.19047619,11.6658667 C0.0853333333,11.6658667 0,11.7512 0,11.8563429" id="Fill-25"></path>
                <path d="M1.67952381,5.87558095 L1.48904762,6.20548571 C1.43647619,6.29653333 1.46771429,6.41310476 1.5587619,6.46567619 L3.86809524,7.79900952 C3.95933333,7.85158095 4.07571429,7.82034286 4.12828571,7.72929524 L4.3187619,7.39939048 C4.37152381,7.30834286 4.34028571,7.19177143 4.24904762,7.1392 L1.93971429,5.80586667 C1.84866667,5.75329524 1.73209524,5.78453333 1.67952381,5.87558095" id="Fill-27"></path>
                <path d="M6.12441905,1.53586667 L5.79451429,1.72634286 C5.70346667,1.77891429 5.67222857,1.89548571 5.7248,1.98653333 L7.05813333,4.29586667 C7.11070476,4.38710476 7.22727619,4.41834286 7.31832381,4.36558095 L7.64822857,4.17510476 C7.73927619,4.12253333 7.77051429,4.00615238 7.71794286,3.91491429 L6.38460952,1.60558095 C6.3320381,1.51453333 6.21546667,1.48329524 6.12441905,1.53586667" id="Fill-29"></path>
                <path d="M12.1436571,0 L11.7627048,0 C11.6575619,0 11.5722286,0.0853333333 11.5722286,0.19047619 L11.5722286,2.85714286 C11.5722286,2.96228571 11.6575619,3.04761905 11.7627048,3.04761905 L12.1436571,3.04761905 C12.2488,3.04761905 12.3341333,2.96228571 12.3341333,2.85714286 L12.3341333,0.19047619 C12.3341333,0.0853333333 12.2488,0 12.1436571,0" id="Fill-31"></path>
                <path d="M0,12.046819 L0,12.046819 C0,12.1519619 0.0853333333,12.2372952 0.19047619,12.2372952 L1.71428571,12.2372952 C1.81942857,12.2372952 1.9047619,12.1519619 1.9047619,12.046819 C1.9047619,11.9416762 1.81942857,11.8563429 1.71428571,11.8563429 L0.19047619,11.8563429 C0.0853333333,11.8563429 0,11.9416762 0,12.046819" id="Fill-33"></path>
                <path d="M0.396780952,8.93939048 L0.396780952,8.93939048 C0.369542857,9.04091429 0.42992381,9.14548571 0.531447619,9.17272381 L2.00344762,9.56700952 C2.10497143,9.59424762 2.20935238,9.53405714 2.23659048,9.43234286 C2.26382857,9.33081905 2.2036381,9.22624762 2.10192381,9.19900952 L0.630114286,8.80472381 C0.5284,8.77748571 0.424019048,8.83767619 0.396780952,8.93939048" id="Fill-35"></path>
                <path d="M1.58428571,6.04053333 L1.58428571,6.04053333 C1.53171429,6.13158095 1.56295238,6.24815238 1.654,6.30072381 L2.97361905,7.06262857 C3.06485714,7.1152 3.1812381,7.0839619 3.23380952,6.99291429 C3.28638095,6.90186667 3.25533333,6.78529524 3.16409524,6.73272381 L1.84447619,5.97081905 C1.75342857,5.91824762 1.63685714,5.94948571 1.58428571,6.04053333" id="Fill-37"></path>
                <path d="M3.48161905,3.54780952 L3.48161905,3.54780952 C3.40714286,3.62228571 3.40714286,3.74285714 3.48161905,3.81714286 L4.55914286,4.89466667 C4.63342857,4.96914286 4.75419048,4.96914286 4.82847619,4.89466667 C4.90295238,4.82038095 4.90295238,4.69961905 4.82847619,4.62533333 L3.75095238,3.54780952 C3.67666667,3.47333333 3.55609524,3.47333333 3.48161905,3.54780952" id="Fill-39"></path>
                <path d="M5.95944762,1.63110476 L5.95944762,1.63110476 C5.8684,1.68367619 5.8371619,1.80024762 5.88973333,1.89129524 L6.6516381,3.21091429 C6.70420952,3.30215238 6.82078095,3.3332 6.91182857,3.28062857 C7.00287619,3.22805714 7.03411429,3.11167619 6.98154286,3.0204381 L6.2196381,1.70081905 C6.16706667,1.60977143 6.05049524,1.57853333 5.95944762,1.63110476" id="Fill-41"></path>
                <path d="M8.84895238,0.420990476 L8.84895238,0.420990476 C8.74742857,0.448228571 8.68704762,0.552609524 8.71428571,0.65432381 L9.10857143,2.12613333 C9.13580952,2.22784762 9.24038095,2.2880381 9.34190476,2.2608 C9.44361905,2.2335619 9.50380952,2.12918095 9.47657143,2.02765714 L9.08228571,0.555657143 C9.05504762,0.454133333 8.95047619,0.393752381 8.84895238,0.420990476" id="Fill-43"></path>
                <path d="M11.953181,0 L11.953181,0 C11.8480381,0 11.7627048,0.0853333333 11.7627048,0.19047619 L11.7627048,1.71428571 C11.7627048,1.81942857 11.8480381,1.9047619 11.953181,1.9047619 C12.0583238,1.9047619 12.1436571,1.81942857 12.1436571,1.71428571 L12.1436571,0.19047619 C12.1436571,0.0853333333 12.0583238,0 11.953181,0" id="Fill-45"></path>
                <path d="M15.0606095,0.396761905 L15.0606095,0.396761905 C14.9590857,0.36952381 14.8545143,0.429904762 14.8272762,0.531428571 L14.4329905,2.00342857 C14.4057524,2.10495238 14.4659429,2.20933333 14.5676571,2.23657143 C14.669181,2.26380952 14.7737524,2.20361905 14.8009905,2.10190476 L15.1952762,0.630095238 C15.2225143,0.528380952 15.1621333,0.424 15.0606095,0.396761905" id="Fill-47"></path>
                <path d="M17.9594476,1.58428571 L17.9594476,1.58428571 C17.8684,1.53171429 17.7518286,1.56295238 17.6992571,1.654 L16.9373524,2.97361905 C16.884781,3.06485714 16.916019,3.1812381 17.0070667,3.23380952 C17.0981143,3.28638095 17.2146857,3.25533333 17.2672571,3.16409524 L18.0291619,1.84447619 C18.0817333,1.75342857 18.0504952,1.63685714 17.9594476,1.58428571" id="Fill-49"></path>
                <path d="M20.4521714,3.48161905 L20.4521714,3.48161905 C20.3776952,3.40714286 20.2571238,3.40714286 20.1828381,3.48161905 L19.1053143,4.55914286 C19.0308381,4.63342857 19.0308381,4.75419048 19.1053143,4.82847619 C19.1796,4.90295238 19.3003619,4.90295238 19.3746476,4.82847619 L20.4521714,3.75095238 C20.5266476,3.67666667 20.5266476,3.55609524 20.4521714,3.48161905" id="Fill-51"></path>
                <path d="M22.3688952,5.95944762 L22.3688952,5.95944762 C22.3163238,5.8684 22.1997524,5.8371619 22.1087048,5.88973333 L20.7890857,6.6516381 C20.6978476,6.70420952 20.6668,6.82078095 20.7193714,6.91182857 C20.7719429,7.00287619 20.8883238,7.03411429 20.9795619,6.98154286 L22.299181,6.2196381 C22.3902286,6.16706667 22.4214667,6.05049524 22.3688952,5.95944762" id="Fill-53"></path>
                <path d="M23.5789905,8.84895238 L23.5789905,8.84895238 C23.5517524,8.7472381 23.4473714,8.68704762 23.3456571,8.71428571 L21.8738476,9.10857143 C21.7721333,9.13580952 21.7119429,9.24038095 21.739181,9.34190476 C21.766419,9.44361905 21.8708,9.50380952 21.9723238,9.47657143 L23.4443238,9.08228571 C23.5458476,9.05504762 23.6062286,8.95047619 23.5789905,8.84895238" id="Fill-55"></path>
                <path d="M24,11.953181 L24,11.953181 C24,11.8480381 23.9146667,11.7627048 23.8095238,11.7627048 L22.2857143,11.7627048 C22.1805714,11.7627048 22.0952381,11.8480381 22.0952381,11.953181 C22.0952381,12.0583238 22.1805714,12.1436571 22.2857143,12.1436571 L23.8095238,12.1436571 C23.9146667,12.1436571 24,12.0583238 24,11.953181" id="Fill-57"></path>
                <path d="M23.603219,15.0606095 L23.603219,15.0606095 C23.6304571,14.9588952 23.5700762,14.8545143 23.4685524,14.8272762 L21.9965524,14.4329905 C21.8950286,14.4057524 21.7906476,14.4659429 21.7634095,14.5676571 C21.7361714,14.669181 21.7963619,14.7737524 21.8980762,14.8009905 L23.3698857,15.1952762 C23.4716,15.2225143 23.575981,15.1621333 23.603219,15.0606095" id="Fill-59"></path>
                <path d="M22.4157143,17.9594476 L22.4157143,17.9594476 C22.4682857,17.8684 22.4370476,17.7518286 22.346,17.6992571 L21.026381,16.9373524 C20.9351429,16.884781 20.8187619,16.916019 20.7661905,17.0070667 C20.713619,17.0981143 20.7446667,17.2146857 20.8359048,17.2672571 L22.1555238,18.0291619 C22.2465714,18.0817333 22.3631429,18.0504952 22.4157143,17.9594476" id="Fill-61"></path>
                <path d="M20.518381,20.4521714 L20.518381,20.4521714 C20.5928571,20.3776952 20.5928571,20.2571238 20.518381,20.1828381 L19.4408571,19.1053143 C19.3665714,19.0308381 19.2458095,19.0308381 19.1715238,19.1053143 C19.0970476,19.1796 19.0970476,19.3003619 19.1715238,19.3746476 L20.2490476,20.4521714 C20.3233333,20.5266476 20.4439048,20.5266476 20.518381,20.4521714" id="Fill-63"></path>
                <path d="M18.0405333,22.3688952 L18.0405333,22.3688952 C18.131581,22.3163238 18.162819,22.1997524 18.1102476,22.1087048 L17.3483429,20.7890857 C17.2957714,20.6978476 17.1792,20.6668 17.0881524,20.7193714 C16.9971048,20.7719429 16.9658667,20.8883238 17.0184381,20.9795619 L17.7803429,22.299181 C17.8329143,22.3902286 17.9494857,22.4214667 18.0405333,22.3688952" id="Fill-65"></path>
                <path d="M15.1510476,23.5789905 L15.1510476,23.5789905 C15.2525714,23.5517524 15.3129524,23.4473714 15.2857143,23.3456571 L14.8914286,21.8738476 C14.8641905,21.7721333 14.759619,21.7119429 14.6580952,21.739181 C14.556381,21.766419 14.4961905,21.8708 14.5234286,21.9723238 L14.9177143,23.4443238 C14.9449524,23.5458476 15.0495238,23.6062286 15.1510476,23.5789905" id="Fill-67"></path>
                <path d="M12.0468,24 L12.0468,24 C12.1519429,24 12.2372762,23.9146667 12.2372762,23.8095238 L12.2372762,22.2857143 C12.2372762,22.1805714 12.1519429,22.0952381 12.0468,22.0952381 C11.9416571,22.0952381 11.8563238,22.1805714 11.8563238,22.2857143 L11.8563238,23.8095238 C11.8563238,23.9146667 11.9416571,24 12.0468,24" id="Fill-69"></path>
                <path d="M8.93939048,23.603219 L8.93939048,23.603219 C9.04091429,23.6304571 9.14548571,23.5700762 9.17272381,23.4685524 L9.56700952,21.9965524 C9.59424762,21.8950286 9.53405714,21.7906476 9.43234286,21.7634095 C9.33081905,21.7361714 9.22624762,21.7963619 9.19900952,21.8980762 L8.80472381,23.3698857 C8.77748571,23.4716 8.83786667,23.575981 8.93939048,23.603219" id="Fill-71"></path>
                <path d="M6.04053333,22.4157143 L6.04053333,22.4157143 C6.13158095,22.4682857 6.24815238,22.4370476 6.30072381,22.346 L7.06262857,21.026381 C7.1152,20.9351429 7.0839619,20.8187619 6.99291429,20.7661905 C6.90186667,20.713619 6.78529524,20.7446667 6.73272381,20.8359048 L5.97081905,22.1555238 C5.91824762,22.2465714 5.94948571,22.3631429 6.04053333,22.4157143" id="Fill-73"></path>
                <path d="M3.54780952,20.518381 L3.54780952,20.518381 C3.62228571,20.5928571 3.74285714,20.5928571 3.81714286,20.518381 L4.89466667,19.4408571 C4.96914286,19.3665714 4.96914286,19.2458095 4.89466667,19.1715238 C4.82038095,19.0970476 4.69961905,19.0970476 4.62533333,19.1715238 L3.54780952,20.2490476 C3.47333333,20.3233333 3.47333333,20.4439048 3.54780952,20.518381" id="Fill-75"></path>
                <path d="M1.63110476,18.0405333 L1.63110476,18.0405333 C1.68367619,18.131581 1.80024762,18.162819 1.89129524,18.1102476 L3.21091429,17.3483429 C3.30215238,17.2957714 3.3332,17.1792 3.28062857,17.0881524 C3.22805714,16.9971048 3.11167619,16.9658667 3.0204381,17.0184381 L1.70081905,17.7803429 C1.60977143,17.8329143 1.57853333,17.9494857 1.63110476,18.0405333" id="Fill-77"></path>
                <path d="M0.421009524,15.1510476 L0.421009524,15.1510476 C0.448247619,15.2525714 0.552628571,15.3129524 0.654342857,15.2857143 L2.12615238,14.8914286 C2.22786667,14.8641905 2.28805714,14.759619 2.26081905,14.6580952 C2.23358095,14.556381 2.1292,14.4961905 2.02767619,14.5234286 L0.55567619,14.9177143 C0.454152381,14.9449524 0.393771429,15.0493333 0.421009524,15.1510476" id="Fill-79"></path>
                <path d="M0,12.046819 L0,12.046819 C0,12.1519619 0.0853333333,12.2372952 0.19047619,12.2372952 L1.71428571,12.2372952 C1.81942857,12.2372952 1.9047619,12.1519619 1.9047619,12.046819 C1.9047619,11.9416762 1.81942857,11.8563429 1.71428571,11.8563429 L0.19047619,11.8563429 C0.0853333333,11.8563429 0,11.9416762 0,12.046819" id="Fill-81"></path>
                <path d="M0.396780952,8.93939048 L0.396780952,8.93939048 C0.369542857,9.04091429 0.42992381,9.14548571 0.531447619,9.17272381 L2.00344762,9.56700952 C2.10497143,9.59424762 2.20935238,9.53405714 2.23659048,9.43234286 C2.26382857,9.33081905 2.2036381,9.22624762 2.10192381,9.19900952 L0.630114286,8.80472381 C0.5284,8.77748571 0.424019048,8.83767619 0.396780952,8.93939048" id="Fill-83"></path>
                <path d="M1.58428571,6.04053333 L1.58428571,6.04053333 C1.53171429,6.13158095 1.56295238,6.24815238 1.654,6.30072381 L2.97361905,7.06262857 C3.06485714,7.1152 3.1812381,7.0839619 3.23380952,6.99291429 C3.28638095,6.90186667 3.25533333,6.78529524 3.16409524,6.73272381 L1.84447619,5.97081905 C1.75342857,5.91824762 1.63685714,5.94948571 1.58428571,6.04053333" id="Fill-85"></path>
                <path d="M3.48161905,3.54780952 L3.48161905,3.54780952 C3.40714286,3.62228571 3.40714286,3.74285714 3.48161905,3.81714286 L4.55914286,4.89466667 C4.63342857,4.96914286 4.75419048,4.96914286 4.82847619,4.89466667 C4.90295238,4.82038095 4.90295238,4.69961905 4.82847619,4.62533333 L3.75095238,3.54780952 C3.67666667,3.47333333 3.55609524,3.47333333 3.48161905,3.54780952" id="Fill-87"></path>
                <path d="M5.95944762,1.63110476 L5.95944762,1.63110476 C5.8684,1.68367619 5.8371619,1.80024762 5.88973333,1.89129524 L6.6516381,3.21091429 C6.70420952,3.30215238 6.82078095,3.3332 6.91182857,3.28062857 C7.00287619,3.22805714 7.03411429,3.11167619 6.98154286,3.0204381 L6.2196381,1.70081905 C6.16706667,1.60977143 6.05049524,1.57853333 5.95944762,1.63110476" id="Fill-89"></path>
                <path d="M8.84895238,0.420990476 L8.84895238,0.420990476 C8.74742857,0.448228571 8.68704762,0.552609524 8.71428571,0.65432381 L9.10857143,2.12613333 C9.13580952,2.22784762 9.24038095,2.2880381 9.34190476,2.2608 C9.44361905,2.2335619 9.50380952,2.12918095 9.47657143,2.02765714 L9.08228571,0.555657143 C9.05504762,0.454133333 8.95047619,0.393752381 8.84895238,0.420990476" id="Fill-91"></path>
                <path d="M11.953181,0 L11.953181,0 C11.8480381,0 11.7627048,0.0853333333 11.7627048,0.19047619 L11.7627048,1.71428571 C11.7627048,1.81942857 11.8480381,1.9047619 11.953181,1.9047619 C12.0583238,1.9047619 12.1436571,1.81942857 12.1436571,1.71428571 L12.1436571,0.19047619 C12.1436571,0.0853333333 12.0583238,0 11.953181,0" id="Fill-93"></path>
            </g>
            <path d="M15.1836735,8.38095238 L13.9218416,8.38095238 C13.7114474,8.38095238 13.5408892,8.55151057 13.5408892,8.76190476 L13.5408892,13.303465 L13.5408892,13.303465 C13.5408892,14.1796031 13.1148393,14.9865723 11.9668718,14.9865723 C10.8307389,14.9865723 10.3928543,14.1796031 10.3928543,13.303465 L10.3928543,8.76190476 C10.3928543,8.55151057 10.2222962,8.38095238 10.011902,8.38095238 L8.76190476,8.38095238 C8.55151057,8.38095238 8.38095238,8.55151057 8.38095238,8.76190476 L8.38095238,13.4648588 L8.38095238,13.4648588 C8.38095238,15.4246414 9.74194488,16.7619048 11.955037,16.7619048 C14.1444598,16.7619048 15.5646259,15.4246414 15.5646259,13.4648588 L15.5646259,8.76190476 C15.5646259,8.55151057 15.3940677,8.38095238 15.1836735,8.38095238 Z" id="Path" fill-rule="nonzero"></path>
        </g>
    </g>
</svg>
