<?xml version="1.0" encoding="UTF-8"?>
<svg width="16px" height="16px" viewBox="0 0 16 16" version="1.1" xmlns="http://www.w3.org/2000/svg" xmlns:xlink="http://www.w3.org/1999/xlink">
    <title>untis_icon</title>
    <g id="Page-1" stroke="none" stroke-width="1" fill="none" fill-rule="evenodd">
        <g id="16x16" fill="#494949" fill-rule="nonzero">
            <path d="M13.0000597,0 C14.6561539,0.0018666676 15.9981997,1.34396067 16,3.00005483 L16,3.00005483 L16,13 C16,14.6568616 14.6568605,16 13,16 L13,16 L3,16 C1.34314734,16 2.27373675e-13,14.6568616 2.27373675e-13,13 L2.27373675e-13,13 L2.27373675e-13,3 C0.00184000092,1.34390793 1.34390734,0.00183767487 3,0 L3,0 Z M8,1 L7.75935027,1.00405902 C4.00478368,1.13090133 1,4.21454858 1,8 C1,11.8659929 4.13400706,15 8,15 C11.8659929,15 15,11.8659929 15,8 L15,8 L14.995941,7.75935027 C14.8690987,4.00478368 11.7854511,1 8,1 L8,1 Z M7.5,2.375 C7.81379815,2.375 8.07358314,2.60625788 8.1182234,2.90764208 L8.125,3 L8.125,6.991 L11.0935921,4.02252438 C11.3376698,3.77844668 11.7333979,3.77844666 11.9774756,4.02252434 C12.1944336,4.23948226 12.21854,4.57626277 12.049795,4.81984795 L11.9774757,4.90640781 L9.132,7.75 L13,7.75 C13.4142136,7.75 13.75,8.08578644 13.75,8.5 C13.75,8.87969577 13.4678461,9.19349096 13.1017706,9.24315338 L13,9.25 L8,9.25 C7.61039318,9.25 7.29017219,8.95292397 7.25350108,8.57293596 C7.05798397,8.49049321 6.91396168,8.30965221 6.8817766,8.09235792 L6.875,8 L6.875,3 C6.875,2.65482203 7.15482203,2.375 7.5,2.375 Z" id="untis_icon"></path>
        </g>
    </g>
</svg>